<svg width="40" height="40" viewBox="0 0 40 40" fill="none" xmlns="http://www.w3.org/2000/svg">
<path d="M20 40C31.0457 40 40 31.0457 40 20C40 8.9543 31.0457 0 20 0C8.9543 0 0 8.9543 0 20C0 31.0457 8.9543 40 20 40Z" fill="#C5CAEB"/>
<path d="M19.167 15.1299C17.7782 19.0188 16.167 26.1298 20.8337 23.4632" stroke="black" stroke-linecap="round"/>
<path d="M11.6666 15C12.2222 15.5556 14 16.5 16.6666 15.8333" stroke="black" stroke-linecap="round"/>
<path d="M23.3334 16.6663C25 17.4997 27.5 17.4997 29.1667 15.833" stroke="black" stroke-linecap="round"/>
<path d="M11.6666 28.333C13.5185 30.8483 18.7778 34.37 25 28.333" stroke="black" stroke-linecap="round" stroke-linejoin="bevel"/>
</svg>
